<?xml version="1.0" encoding="utf-8"?>
<!-- Generator: Adobe Illustrator 23.0.4, SVG Export Plug-In . SVG Version: 6.00 Build 0)  -->
<svg version="1.1" id="Capa_1" xmlns="http://www.w3.org/2000/svg" xmlns:xlink="http://www.w3.org/1999/xlink" x="0px" y="0px"
	 viewBox="0 0 300 93.98" style="enable-background:new 0 0 300 93.98;" xml:space="preserve">
<style type="text/css">
	.st0{fill:#1C1C1C;}
</style>
<g>
	<path class="st0" d="M0,0c4.69,0,9.37,0.01,14.06,0.01c0.21,0,0.42,0,0.69,0c0,11.62,0,23.17,0,34.73c0.05,0.01,0.1,0.02,0.15,0.03
		c0.24-0.6,0.48-1.19,0.71-1.79c1.37-3.53,2.73-7.07,4.11-10.6c1.23-3.15,2.48-6.3,3.71-9.45c1.05-2.69,2.09-5.38,3.13-8.07
		c0.57-1.47,1.14-2.94,1.72-4.4C28.39,0.19,28.54,0,28.93,0c5.01,0.02,10.01,0.01,15.02,0.01c0.15,0,0.3,0.02,0.49,0.03
		c-1.39,3.14-2.76,6.23-4.13,9.32c-1.98,4.46-3.95,8.92-5.94,13.38c-1.52,3.42-3.05,6.83-4.57,10.25c-0.82,1.83-1.61,3.67-2.46,5.48
		c-0.33,0.7,0.1,1.24,0.29,1.81c0.73,2.18,1.51,4.35,2.29,6.52c0.82,2.3,1.65,4.59,2.47,6.9c0.75,2.12,1.48,4.24,2.23,6.37
		c0.81,2.29,1.62,4.58,2.43,6.86c0.76,2.15,1.52,4.31,2.28,6.46c0.73,2.05,1.46,4.1,2.19,6.15c0.98,2.79,1.96,5.58,2.94,8.37
		c0.67,1.9,1.35,3.8,2.03,5.69c0.03,0.09,0.04,0.2,0.07,0.35c-0.26,0-0.49,0-0.72,0c-4.9,0-9.8-0.01-14.7,0.01
		c-0.42,0-0.57-0.17-0.68-0.5c-0.67-2.13-1.33-4.27-2-6.4c-0.81-2.57-1.63-5.14-2.45-7.71c-0.61-1.94-1.22-3.88-1.83-5.82
		c-0.68-2.14-1.38-4.28-2.06-6.42c-0.46-1.47-0.9-2.94-1.36-4.41c-0.57-1.82-1.15-3.64-1.74-5.46c-0.05-0.15-0.18-0.27-0.34-0.5
		c-0.42,1.09-0.79,2.06-1.16,3.03c-0.77,1.98-1.54,3.96-2.31,5.94c-0.3,0.78-0.49,1.55-0.48,2.41c0.03,8.37,0.02,16.75,0.02,25.12
		c0,0.71,0,0.71-0.69,0.71c-4.49,0-8.98-0.01-13.47-0.01c-0.2,0-0.39,0.02-0.59,0.03C0,62.65,0,31.33,0,0z"/>
	<path class="st0" d="M300,93.98c-0.53-0.01-1.07-0.03-1.6-0.03c-4.19,0-8.37-0.01-12.56,0.01c-0.44,0-0.56-0.14-0.61-0.56
		c-0.24-2.03-0.53-4.05-0.79-6.08c-0.24-1.9-0.45-3.81-0.67-5.72c-0.14-1.15-0.27-2.29-0.45-3.43c-0.02-0.15-0.29-0.35-0.46-0.36
		c-0.58-0.05-1.17-0.03-1.76-0.03c-3.51,0-7.02,0-10.53,0c-0.28,0-0.62-0.04-0.83,0.09c-0.14,0.09-0.11,0.46-0.14,0.7
		c-0.21,1.6-0.42,3.19-0.63,4.79c-0.15,1.17-0.3,2.35-0.42,3.52c-0.16,1.49-0.29,2.99-0.44,4.48c-0.07,0.65-0.13,1.3-0.24,1.95
		c-0.06,0.37-0.2,0.64-0.73,0.64c-4.42-0.03-8.84-0.02-13.25-0.01c-0.75,0-0.77,0.01-0.68-0.73c0.23-1.8,0.49-3.59,0.74-5.38
		c0.17-1.23,0.33-2.46,0.5-3.69c0.27-1.95,0.54-3.9,0.8-5.85c0.18-1.32,0.34-2.65,0.52-3.97c0.24-1.81,0.5-3.62,0.75-5.44
		c0.18-1.36,0.35-2.71,0.53-4.07c0.17-1.27,0.36-2.53,0.55-3.8c0.09-0.6,0.17-1.2,0.25-1.79c0.31-2.4,0.62-4.79,0.93-7.19
		c0.28-2.13,0.57-4.26,0.85-6.39c0.28-2.08,0.56-4.15,0.85-6.23c0.33-2.32,0.68-4.64,1-6.96c0.19-1.35,0.31-2.72,0.49-4.07
		c0.24-1.78,0.52-3.54,0.77-5.32c0.18-1.3,0.33-2.61,0.51-3.91c0.25-1.84,0.52-3.69,0.77-5.53c0.18-1.32,0.33-2.64,0.51-3.96
		c0.17-1.28,0.36-2.56,0.53-3.85c0.17-1.21,0.33-2.43,0.5-3.64c0.09-0.7,0.19-1.41,0.29-2.15c7.09,0,14.17,0,21.33,0
		c0.12,0.79,0.24,1.6,0.36,2.41c0.21,1.45,0.43,2.9,0.62,4.36c0.11,0.82,0.18,1.65,0.29,2.48c0.18,1.31,0.4,2.62,0.59,3.93
		c0.11,0.75,0.15,1.51,0.26,2.26c0.18,1.34,0.39,2.68,0.58,4.03c0.08,0.58,0.13,1.16,0.22,1.74c0.22,1.56,0.46,3.11,0.67,4.67
		c0.1,0.73,0.14,1.47,0.24,2.2c0.18,1.35,0.4,2.69,0.58,4.03c0.11,0.8,0.17,1.61,0.28,2.42c0.18,1.31,0.4,2.61,0.59,3.92
		c0.09,0.66,0.13,1.32,0.22,1.98c0.12,0.91,0.29,1.82,0.41,2.73c0.11,0.8,0.17,1.61,0.27,2.41c0.22,1.68,0.45,3.36,0.67,5.04
		c0.2,1.52,0.4,3.04,0.62,4.55c0.26,1.8,0.55,3.59,0.79,5.39c0.18,1.31,0.3,2.63,0.47,3.94c0.22,1.68,0.45,3.36,0.68,5.04
		c0.21,1.52,0.4,3.05,0.62,4.57c0.18,1.27,0.41,2.54,0.59,3.81c0.1,0.7,0.12,1.41,0.22,2.1c0.26,1.89,0.55,3.77,0.81,5.66
		c0.19,1.37,0.34,2.74,0.51,4.1c0.14,1.1,0.28,2.21,0.44,3.31c0.02,0.14,0.13,0.28,0.2,0.41C300,93.69,300,93.84,300,93.98z
		 M276.6,22.71c-0.05,0-0.11,0-0.16,0c-0.13,0.9-0.26,1.8-0.38,2.7c-0.14,1.1-0.28,2.2-0.41,3.31c-0.16,1.42-0.32,2.84-0.47,4.26
		c-0.09,0.79-0.16,1.59-0.26,2.38c-0.19,1.47-0.4,2.93-0.58,4.4c-0.11,0.88-0.15,1.76-0.26,2.64c-0.17,1.36-0.4,2.71-0.57,4.06
		c-0.19,1.55-0.34,3.1-0.5,4.64c-0.07,0.61-0.12,1.23-0.2,1.84c-0.13,0.94-0.29,1.88-0.41,2.83c-0.11,0.83-0.16,1.66-0.26,2.49
		c-0.18,1.46-0.38,2.91-0.59,4.37c-0.07,0.46,0.11,0.59,0.55,0.58c1.19-0.02,2.39-0.01,3.58-0.01c1.78,0,3.56,0,5.34,0
		c0.24,0,0.51,0.01,0.48-0.33c-0.04-0.53-0.11-1.06-0.17-1.58c-0.11-0.95-0.23-1.9-0.35-2.85c-0.1-0.83-0.19-1.66-0.3-2.49
		c-0.18-1.46-0.37-2.92-0.54-4.38c-0.11-0.9-0.2-1.8-0.31-2.7c-0.18-1.46-0.37-2.92-0.55-4.38c-0.11-0.88-0.19-1.77-0.3-2.65
		c-0.18-1.39-0.38-2.78-0.55-4.17c-0.19-1.55-0.34-3.11-0.53-4.66c-0.17-1.37-0.37-2.74-0.53-4.12c-0.18-1.5-0.32-3-0.5-4.5
		C276.8,23.81,276.69,23.26,276.6,22.71z"/>
	<path class="st0" d="M170.64,0.01c0.24,0,0.4,0,0.55,0c7.73,0,15.47-0.03,23.2,0.03c1.6,0.01,3.21,0.33,4.8,0.6
		c2.5,0.43,4.76,1.47,6.82,2.91c1.78,1.24,3.25,2.8,4.42,4.64c1.01,1.57,1.69,3.27,2.24,5.04c0.2,0.66,0.35,1.34,0.44,2.02
		c0.14,1.07,0.28,2.15,0.28,3.23c0.02,7.11,0.14,14.22-0.05,21.33c-0.15,5.52-2.45,10.15-6.76,13.71c-0.52,0.43-1.09,0.8-1.67,1.14
		c-0.46,0.27-0.59,0.51-0.41,1.07c0.43,1.35,0.76,2.73,1.13,4.1c0.4,1.51,0.8,3.01,1.2,4.52c0.61,2.29,1.2,4.58,1.82,6.87
		c0.54,2,1.12,3.99,1.67,5.99c0.46,1.69,0.88,3.39,1.33,5.08c0.47,1.75,0.95,3.49,1.42,5.23c0.39,1.44,0.76,2.87,1.13,4.31
		c0.18,0.67,0.36,1.33,0.56,2.08c-0.23,0.03-0.39,0.06-0.55,0.06c-5.4,0-10.8,0-16.2,0.01c-0.43,0-0.57-0.15-0.63-0.57
		c-0.24-1.59-0.53-3.18-0.8-4.77c-0.3-1.82-0.58-3.65-0.87-5.47c-0.27-1.68-0.56-3.36-0.83-5.04c-0.18-1.09-0.32-2.18-0.5-3.26
		c-0.18-1.12-0.4-2.23-0.59-3.35c-0.16-0.98-0.3-1.96-0.46-2.94c-0.26-1.63-0.54-3.25-0.81-4.88c-0.17-1.05-0.32-2.1-0.49-3.15
		c-0.14-0.86-0.27-1.72-0.44-2.57c-0.02-0.12-0.24-0.28-0.37-0.28c-1.85-0.02-3.71-0.02-5.56-0.02c-0.29,0-0.34,0.16-0.34,0.41
		c0.01,2.26,0,4.52,0,6.79c0,9.37,0,18.74,0,28.11c0,1.06,0.15,0.99-0.96,0.99c-4.4,0-8.8-0.01-13.2,0.01
		c-0.45,0-0.55-0.15-0.53-0.55c0.02-0.41,0-0.82,0-1.23c0-30.43,0-60.86,0-91.29C170.64,0.62,170.64,0.36,170.64,0.01z
		 M185.33,28.94C185.32,28.94,185.32,28.94,185.33,28.94c-0.01,4.58,0,9.15-0.01,13.73c0,0.28,0.09,0.39,0.36,0.38
		c2.92-0.01,5.84,0.05,8.76-0.04c1.54-0.05,2.89-0.65,3.71-2.09c0.52-0.9,0.69-1.89,0.7-2.92c0-5.43,0.01-10.86-0.01-16.29
		c0-1.17,0-2.36-0.19-3.51c-0.34-2.07-1.98-3.37-3.91-3.43c-2.93-0.09-5.87,0.01-8.81-0.01c-0.53,0-0.61,0.2-0.61,0.66
		C185.33,19.93,185.33,24.43,185.33,28.94z"/>
	<path class="st0" d="M95.17,0.03c7.14,0,14.21,0,21.33,0c0.15,1.15,0.3,2.28,0.46,3.41c0.26,1.85,0.55,3.71,0.81,5.56
		c0.18,1.3,0.31,2.6,0.48,3.9c0.18,1.32,0.4,2.63,0.57,3.94c0.18,1.32,0.31,2.64,0.49,3.96c0.25,1.84,0.53,3.67,0.79,5.51
		c0.08,0.59,0.14,1.19,0.22,1.79c0.28,2.02,0.57,4.03,0.84,6.05c0.18,1.33,0.32,2.67,0.5,4.01c0.25,1.84,0.53,3.68,0.8,5.52
		c0.08,0.56,0.15,1.12,0.22,1.68c0.21,1.54,0.44,3.09,0.64,4.63c0.16,1.26,0.29,2.53,0.46,3.8c0.29,2.25,0.59,4.5,0.9,6.74
		c0.21,1.56,0.41,3.11,0.63,4.67c0.25,1.77,0.54,3.53,0.78,5.3c0.18,1.33,0.3,2.67,0.49,4c0.18,1.3,0.41,2.58,0.59,3.88
		c0.11,0.79,0.15,1.59,0.26,2.38c0.25,1.82,0.53,3.64,0.79,5.46c0.15,1.05,0.29,2.1,0.42,3.16c0.17,1.34,0.32,2.67,0.5,4.01
		c0.06,0.44-0.06,0.58-0.53,0.57c-4.51-0.02-9.02-0.01-13.52,0c-0.33,0-0.49-0.08-0.53-0.42c-0.1-0.79-0.23-1.58-0.34-2.37
		c-0.36-2.82-0.71-5.64-1.06-8.46c-0.17-1.43-0.34-2.86-0.48-4.29c-0.04-0.45-0.21-0.62-0.66-0.62c-4.15,0.01-8.3,0.01-12.45-0.01
		c-0.41,0-0.64,0.1-0.68,0.53c-0.08,0.72-0.19,1.44-0.28,2.16c-0.16,1.34-0.31,2.67-0.46,4.01c-0.16,1.52-0.3,3.03-0.47,4.55
		c-0.11,0.98-0.27,1.96-0.4,2.95c-0.07,0.51-0.15,1.01-0.19,1.52c-0.02,0.37-0.16,0.47-0.53,0.46c-4.33-0.01-8.66-0.01-12.99-0.01
		c-1.1,0-1.14-0.01-1.01-1.08c0.22-1.85,0.51-3.69,0.76-5.54c0.16-1.19,0.32-2.39,0.48-3.59c0.27-1.97,0.54-3.94,0.8-5.9
		c0.18-1.36,0.34-2.72,0.52-4.07c0.19-1.41,0.41-2.81,0.61-4.22c0.28-1.97,0.55-3.94,0.81-5.91c0.18-1.39,0.33-2.78,0.51-4.17
		c0.16-1.21,0.36-2.42,0.53-3.64c0.18-1.3,0.34-2.61,0.52-3.91c0.19-1.35,0.39-2.7,0.57-4.06c0.18-1.32,0.33-2.64,0.51-3.97
		c0.25-1.83,0.52-3.65,0.77-5.48c0.18-1.36,0.34-2.71,0.52-4.07c0.15-1.16,0.31-2.32,0.47-3.48c0.18-1.3,0.37-2.6,0.56-3.9
		c0.21-1.46,0.42-2.92,0.61-4.37c0.18-1.32,0.33-2.64,0.51-3.96c0.25-1.81,0.52-3.62,0.76-5.43c0.19-1.37,0.35-2.75,0.53-4.12
		c0.16-1.2,0.33-2.39,0.5-3.58c0.12-0.9,0.22-1.8,0.35-2.69C94.88,1.9,95.03,0.99,95.17,0.03z M100.86,63.18c3.26,0,6.41,0,9.56,0
		c0.34,0,0.38-0.2,0.35-0.45c-0.11-0.99-0.22-1.98-0.34-2.96c-0.09-0.74-0.2-1.47-0.29-2.21c-0.11-0.97-0.21-1.94-0.32-2.91
		c-0.06-0.58-0.12-1.16-0.2-1.75c-0.18-1.39-0.39-2.77-0.56-4.16c-0.19-1.55-0.34-3.11-0.53-4.66c-0.17-1.37-0.37-2.74-0.53-4.11
		c-0.18-1.52-0.32-3.04-0.49-4.55c-0.2-1.69-0.41-3.38-0.63-5.06c-0.12-0.91-0.26-1.82-0.38-2.73c-0.19-1.48-0.37-2.96-0.56-4.44
		c-0.01-0.11-0.08-0.21-0.13-0.31c-0.05,0-0.1,0.01-0.14,0.01c-0.02,0.41-0.02,0.83-0.07,1.24c-0.21,1.6-0.44,3.19-0.64,4.78
		c-0.1,0.79-0.15,1.58-0.25,2.37c-0.12,0.98-0.28,1.96-0.4,2.94c-0.1,0.79-0.16,1.58-0.26,2.37c-0.19,1.58-0.41,3.16-0.6,4.75
		c-0.09,0.72-0.12,1.45-0.22,2.17c-0.19,1.42-0.41,2.84-0.59,4.26c-0.18,1.51-0.32,3.03-0.49,4.54c-0.07,0.62-0.13,1.23-0.21,1.85
		c-0.2,1.49-0.41,2.97-0.61,4.46c-0.13,1-0.27,2-0.39,3C100.91,62.12,100.9,62.61,100.86,63.18z"/>
</g>
</svg>
